bicep_curl
version=1
nRows=51
nColumns=3
inDegrees=yes

# SIMM Motion File Header:
name bicep_curl
datacolumns 3
datarows 51
otherdata 1
range 0.000000 0.500000
endheader
time	/jointset/r_shoulder/r_shoulder_elev/value	/jointset/r_elbow/r_elbow_flex/value
0.00	0	0.0
0.01	0	2.6
0.02	0	5.2
0.03	0	7.8
0.04	0	10.4
0.05	0	13.0
0.06	0	15.6
0.07	0	18.2
0.08	0	20.8
0.09	0	23.4
0.10	0	26.0
0.11	0	28.6
0.12	0	31.2
0.13	0	33.8
0.14	0	36.4
0.15	0	39.0
0.16	0	41.6
0.17	0	44.2
0.18	0	46.8
0.19	0	49.4
0.20	0	52.0
0.21	0	54.6
0.22	0	57.2
0.23	0	59.8
0.24	0	62.4
0.25	0	65.0
0.26	0	67.6
0.27	0	70.2
0.28	0	72.8
0.29	0	75.4
0.30	0	78.0
0.31	0	80.6
0.32	0	83.2
0.33	0	85.8
0.34	0	88.4
0.35	0	91.0
0.36	0	93.6
0.37	0	96.2
0.38	0	98.8
0.39	0	101.4
0.40	0	104.0
0.41	0	106.6
0.42	0	109.2
0.43	0	111.8
0.44	0	114.4
0.45	0	117.0
0.46	0	119.6
0.47	0	122.2
0.48	0	124.8
0.49	0	127.4
0.50	0	130.0
